<svg width="57" height="49" viewBox="0 0 57 49" fill="none" xmlns="http://www.w3.org/2000/svg">
<path fill-rule="evenodd" clip-rule="evenodd" d="M0 2.32238C0 1.21231 1.16569 0.488233 2.16085 0.980233L18.6003 9.10782V46.2571C18.6003 47.938 16.8217 49.0232 15.3271 48.2543L0.81234 40.7877C0.313527 40.5312 0 40.0172 0 39.4563V2.32238Z" fill="url(#paint0_linear_504_193)"/>
<path fill-rule="evenodd" clip-rule="evenodd" d="M18.5938 9.11133L37.6206 40.4743L18.5938 30.8701V9.11133Z" fill="url(#paint1_linear_504_193)"/>
<path fill-rule="evenodd" clip-rule="evenodd" d="M37.2076 0.699344C37.6217 0.0418958 38.4701 -0.189432 39.1607 0.166767L56.8858 9.30875L37.6 40.457L25.1235 19.8813L37.2076 0.699344Z" fill="url(#paint2_linear_504_193)"/>
<path fill-rule="evenodd" clip-rule="evenodd" d="M37.6047 40.4562L56.8826 9.30322L56.9999 44.2204C57.0093 47.0212 54.0522 48.8398 51.5568 47.5679L37.6047 40.4562Z" fill="url(#paint3_linear_504_193)"/>
<defs>
<linearGradient id="paint0_linear_504_193" x1="-1.44793" y1="-17.8759" x2="41.2406" y2="-16.0843" gradientUnits="userSpaceOnUse">
<stop stop-color="#001A76"/>
<stop offset="1" stop-color="#6F3AFA"/>
</linearGradient>
<linearGradient id="paint1_linear_504_193" x1="23.3505" y1="5.62656" x2="57.3529" y2="35.175" gradientUnits="userSpaceOnUse">
<stop stop-color="#3D93FF"/>
<stop offset="1" stop-color="#65A8FB"/>
</linearGradient>
<linearGradient id="paint2_linear_504_193" x1="22.651" y1="-15.8655" x2="95.1577" y2="-9.74112" gradientUnits="userSpaceOnUse">
<stop stop-color="#001A76"/>
<stop offset="1" stop-color="#6F3AFA"/>
</linearGradient>
<linearGradient id="paint3_linear_504_193" x1="42.4535" y1="5.00568" x2="82.5838" y2="33.8312" gradientUnits="userSpaceOnUse">
<stop stop-color="#65A8FB"/>
<stop offset="1" stop-color="#65A8FB"/>
</linearGradient>
</defs>
</svg>
