<svg width="24" height="24" viewBox="0 0 24 24" fill="none" xmlns="http://www.w3.org/2000/svg">
<path fill-rule="evenodd" clip-rule="evenodd" d="M12.6028 14.1522C11.1008 14.1522 9.88246 12.9346 9.88246 11.4319C9.88246 10.6705 10.1941 9.98417 10.6982 9.4897C10.8853 9.30611 10.8882 9.00558 10.7046 8.81844C10.521 8.6313 10.2205 8.62842 10.0333 8.81201C9.35501 9.47747 8.93311 10.405 8.93311 11.4319C8.93311 13.4591 10.5766 15.1016 12.6028 15.1016C13.6287 15.1016 14.5572 14.6797 15.2227 14.0013C15.4063 13.8142 15.4034 13.5136 15.2162 13.3301C15.0291 13.1465 14.7286 13.1493 14.545 13.3365C14.0505 13.8405 13.3633 14.1522 12.6028 14.1522Z" fill="#677185"/>
<path fill-rule="evenodd" clip-rule="evenodd" d="M5.07682 15.3618C6.60243 17.2353 9.02471 19.1597 12.5209 19.1597C14.892 19.1597 16.7794 18.2721 18.227 17.114C18.4295 16.952 18.4613 16.6577 18.2981 16.4567C18.1349 16.2557 17.8384 16.224 17.6359 16.3861C16.3213 17.4378 14.6364 18.2247 12.5209 18.2247C9.41453 18.2247 7.23495 16.5248 5.80931 14.7741C5.09752 13.9 4.58314 13.0236 4.24678 12.3649C4.07888 12.0362 3.9561 11.7632 3.87586 11.5739C3.85589 11.5268 3.83857 11.4849 3.82385 11.4486C3.85978 11.3647 3.91033 11.2503 3.97578 11.111C4.12607 10.791 4.35437 10.3402 4.664 9.82323C5.2853 8.78585 6.22379 7.49897 7.50167 6.46196C7.70303 6.29855 7.73282 6.00404 7.5682 5.80415C7.40359 5.60426 7.1069 5.57469 6.90554 5.7381C5.51366 6.86763 4.50891 8.25261 3.85441 9.34544C3.52614 9.89355 3.28339 10.3725 3.12212 10.7159C3.04144 10.8877 2.981 11.0259 2.94032 11.1222C2.91998 11.1704 2.90457 11.2081 2.89402 11.2343C2.88875 11.2474 2.8847 11.2577 2.88185 11.2649L2.87848 11.2736L2.87748 11.2762L2.87715 11.277L2.87702 11.2774C2.87697 11.2775 2.87693 11.2776 3.31712 11.4437C2.8735 11.6006 2.87357 11.6008 2.87365 11.601L2.87387 11.6016L2.87448 11.6033L2.87642 11.6087C2.87804 11.6131 2.88031 11.6192 2.88324 11.6271C2.88908 11.6427 2.89754 11.665 2.90867 11.6936C2.93091 11.7508 2.96381 11.8329 3.00773 11.9365C3.09553 12.1436 3.22755 12.4369 3.40669 12.7877C3.76439 13.4881 4.31298 14.4238 5.07682 15.3618ZM3.31712 11.4437L2.8735 11.6006C2.83595 11.496 2.83716 11.3815 2.87693 11.2776L3.31712 11.4437Z" fill="#677185"/>
<path fill-rule="evenodd" clip-rule="evenodd" d="M18.8326 15.66C19.0248 15.8302 19.32 15.8141 19.4921 15.624C20.3954 14.6258 21.0436 13.5865 21.4657 12.7988C21.6771 12.4042 21.8329 12.0707 21.9364 11.8344C21.9881 11.7162 22.0269 11.6221 22.053 11.5567C22.0661 11.5239 22.076 11.4983 22.0829 11.4804C22.0863 11.4715 22.089 11.4645 22.0908 11.4594L22.0931 11.4534L22.0938 11.4515L22.094 11.4508L22.0941 11.4506C22.0942 11.4505 22.0942 11.4504 21.6551 11.293C22.0917 11.1289 22.0916 11.1287 22.0916 11.1285L22.0907 11.1263L22.0887 11.1211C22.087 11.1167 22.0846 11.1106 22.0815 11.1029C22.0753 11.0874 22.0664 11.0653 22.0547 11.0369C22.0312 10.9802 21.9966 10.8986 21.9506 10.7956C21.8585 10.5897 21.7207 10.2979 21.5354 9.94883C21.1653 9.25181 20.6027 8.32061 19.8327 7.38709C18.2972 5.52564 15.8903 3.60341 12.5062 3.60341C10.9799 3.60341 9.64724 3.99632 8.50393 4.6004C8.27641 4.72062 8.19049 5.00052 8.31201 5.22559C8.43353 5.45066 8.71649 5.53567 8.94401 5.41545C9.96608 4.87542 11.1487 4.52744 12.5062 4.52744C15.4959 4.52744 17.6635 6.21898 19.109 7.97129C19.8294 8.84466 20.359 9.72034 20.7084 10.3785C20.8829 10.707 21.0116 10.9799 21.0963 11.1692C21.1177 11.2172 21.1363 11.2597 21.152 11.2964C21.1324 11.3439 21.1081 11.4012 21.0792 11.4672C20.9842 11.6843 20.8389 11.9956 20.6404 12.366C20.2426 13.1084 19.6353 14.0805 18.7961 15.0076C18.6241 15.1977 18.6404 15.4898 18.8326 15.66ZM21.6551 11.293L22.0917 11.1289C22.1314 11.2323 22.1323 11.3464 22.0942 11.4504L21.6551 11.293Z" fill="#677185"/>
<path fill-rule="evenodd" clip-rule="evenodd" d="M15.4722 12.3893C15.715 12.4333 15.945 12.257 15.9858 11.9955C16.0172 11.7949 16.035 11.5875 16.035 11.3736C16.035 9.32404 14.4922 7.6615 12.588 7.6615C12.3894 7.6615 12.1968 7.68068 12.0106 7.71443C11.7678 7.75845 11.6041 8.00612 11.6449 8.26763C11.6858 8.52914 11.9158 8.70545 12.1586 8.66144C12.2999 8.63582 12.4429 8.62183 12.588 8.62183C13.9995 8.62183 15.1433 9.85424 15.1433 11.3736C15.1433 11.5299 15.1303 11.6839 15.1065 11.8361C15.0656 12.0976 15.2293 12.3452 15.4722 12.3893Z" fill="#677185"/>
<path fill-rule="evenodd" clip-rule="evenodd" d="M8.93311 11.4319C8.93311 13.459 10.5757 15.1016 12.6028 15.1016C13.6297 15.1016 14.5572 14.6797 15.2227 14.0013C15.4063 13.8142 15.4034 13.5136 15.2162 13.3301C15.0291 13.1465 14.7286 13.1493 14.545 13.3365C14.0505 13.8405 13.3641 14.1522 12.6028 14.1522C11.1 14.1522 9.88246 12.9347 9.88246 11.4319C9.88246 10.6713 10.1942 9.98412 10.6982 9.4897C10.8853 9.30611 10.8882 9.00558 10.7046 8.81844C10.521 8.6313 10.2205 8.62842 10.0333 8.81201C9.35496 9.47752 8.93311 10.4059 8.93311 11.4319Z" fill="#677185"/>
<path fill-rule="evenodd" clip-rule="evenodd" d="M20.6343 19.3622C20.8148 19.1816 20.8148 18.8889 20.6343 18.7084L5.32626 3.4004C5.14573 3.21987 4.85304 3.21987 4.67251 3.4004C4.49198 3.58093 4.49198 3.87362 4.67251 4.05415L19.9805 19.3622C20.161 19.5427 20.4537 19.5427 20.6343 19.3622Z" fill="#677185"/>
</svg>
